<?xml version="1.0" encoding="UTF-8"?>
<svg id="Capa_2" data-name="Capa 2" xmlns="http://www.w3.org/2000/svg" viewBox="0 0 60.45 54.3">
  <defs>
    <style>
      .cls-1 {
        fill: #010101;
        stroke: #1d1d1b;
        stroke-miterlimit: 10;
      }
    </style>
  </defs>
  <g id="Capa_1-2" data-name="Capa 1">
    <path class="cls-1" d="M25.1,49.7c0,2.26-1.84,4.1-4.1,4.1s-4.1-1.84-4.1-4.1,1.84-4.1,4.1-4.1,4.1,1.84,4.1,4.1ZM47.65,45.6c-2.26,0-4.1,1.84-4.1,4.1s1.84,4.1,4.1,4.1,4.1-1.84,4.1-4.1-1.84-4.1-4.1-4.1ZM59.87,13.35l-6.57,23.65c-.74,2.65-3.16,4.49-5.91,4.5h-25.33c-2.76,0-5.19-1.84-5.93-4.5L7.14,4.6H2.55c-1.13,0-2.05-.92-2.05-2.05S1.42.5,2.55.5h6.15c.92,0,1.73.61,1.98,1.5l2.43,8.75h44.79c1.13,0,2.05.92,2.05,2.05,0,.19-.03.37-.07.55ZM55.2,14.85H14.24l5.84,21.05c.25.89,1.05,1.5,1.98,1.5h25.33c.92,0,1.73-.61,1.98-1.5l5.83-21.05Z"/>
  </g>
</svg>