<?xml version="1.0" encoding="UTF-8"?>
<svg id="Capa_2" data-name="Capa 2" xmlns="http://www.w3.org/2000/svg" viewBox="0 0 310.22 74.54">
  <defs>
    <style>
      .cls-1 {
        fill: none;
        stroke: #000;
        stroke-miterlimit: 10;
        stroke-width: 4.71px;
      }

      .cls-2 {
        fill: #e6007e;
      }
    </style>
  </defs>
  <g id="Capa_1-2" data-name="Capa 1">
    <g>
      <rect class="cls-2" x="302.95" y="43.6" width="7.27" height="7.05"/>
      <path class="cls-2" d="M103,50.14h-7.11v-28.35h-11.26v-6.34h29.63v6.34h-11.26v28.35Z"/>
      <path d="M120.99,21.92c-1.09,0-2.01-.38-2.76-1.13-.76-.76-1.13-1.68-1.13-2.76s.38-2.01,1.13-2.76c.76-.76,1.68-1.13,2.76-1.13s2.01.38,2.76,1.13c.76.76,1.13,1.68,1.13,2.76s-.38,2.01-1.13,2.76-1.68,1.13-2.76,1.13ZM117.44,50.14v-25.69h7.11v25.69h-7.11Z"/>
      <path d="M131.27,60.42v-28.95h-3.51v-7.02h7.19v4.2h1.8c.91-1.48,2.13-2.64,3.66-3.47,1.53-.83,3.38-1.24,5.55-1.24,2.66,0,4.9.56,6.72,1.67,1.83,1.11,3.21,2.67,4.15,4.67.94,2,1.41,4.34,1.41,7.02s-.46,5.03-1.37,7.04c-.91,2.01-2.24,3.57-3.98,4.67-1.74,1.1-3.85,1.65-6.34,1.65-1.88,0-3.5-.35-4.84-1.05-1.34-.7-2.4-1.69-3.17-2.98h-.17v13.79h-7.11ZM144.63,44.49c2.17,0,3.8-.64,4.88-1.93,1.08-1.28,1.63-3.04,1.63-5.27s-.54-3.98-1.63-5.27c-1.09-1.28-2.71-1.93-4.88-1.93-1.91,0-3.43.54-4.56,1.61-1.13,1.07-1.69,2.55-1.69,4.43v2.31c0,1.88.56,3.36,1.69,4.43,1.13,1.07,2.65,1.61,4.56,1.61Z"/>
      <path d="M170.12,50.61c-3.03,0-5.4-.73-7.11-2.21-1.71-1.47-2.57-3.4-2.57-5.8,0-2.54.88-4.5,2.65-5.87,1.77-1.37,4.31-2.05,7.62-2.05h7.37v-.99c0-2.77-1.66-4.15-4.97-4.15-2.88,0-4.62,1-5.22,3h-7.07c.57-2.83,1.9-4.97,3.98-6.42,2.08-1.46,4.85-2.18,8.31-2.18,3.83,0,6.74.86,8.76,2.57,2.01,1.71,3.02,4.21,3.02,7.49v9.12h3.34v7.02h-7.19v-4.2h-1.8c-.89,1.49-2.07,2.63-3.55,3.45-1.48.81-3.34,1.22-5.57,1.22ZM171.19,45.22c1.34,0,2.53-.24,3.55-.73,1.03-.49,1.84-1.13,2.44-1.95s.9-1.73.9-2.76v-.39h-7.02c-2.57,0-3.85.96-3.85,2.87,0,.94.36,1.67,1.07,2.18.71.51,1.68.77,2.91.77Z"/>
      <path class="cls-2" d="M203.28,50.14h-7.11v-28.35h-11.26v-6.34h29.63v6.34h-11.26v28.35Z"/>
      <path d="M213.62,60.42v-5.7h5.65l2.01-4.8-11.09-25.48h7.54l7.19,17.3h.17l7.02-17.3h7.28l-11.01,25.69-2.1,4.97c-.71,1.68-1.54,2.99-2.48,3.92-.94.93-2.38,1.39-4.33,1.39h-5.87Z"/>
      <path d="M244.45,60.42v-28.95h-3.51v-7.02h7.19v4.2h1.8c.91-1.48,2.13-2.64,3.66-3.47,1.53-.83,3.38-1.24,5.55-1.24,2.66,0,4.9.56,6.72,1.67,1.83,1.11,3.21,2.67,4.15,4.67.94,2,1.41,4.34,1.41,7.02s-.46,5.03-1.37,7.04c-.91,2.01-2.24,3.57-3.98,4.67-1.74,1.1-3.85,1.65-6.34,1.65-1.88,0-3.5-.35-4.84-1.05-1.34-.7-2.4-1.69-3.17-2.98h-.17v13.79h-7.11ZM257.81,44.49c2.17,0,3.8-.64,4.88-1.93,1.08-1.28,1.63-3.04,1.63-5.27s-.54-3.98-1.63-5.27c-1.09-1.28-2.71-1.93-4.88-1.93-1.91,0-3.43.54-4.56,1.61-1.13,1.07-1.69,2.55-1.69,4.43v2.31c0,1.88.56,3.36,1.69,4.43,1.13,1.07,2.65,1.61,4.56,1.61Z"/>
      <path d="M287.39,50.65c-2.77,0-5.18-.55-7.24-1.65-2.06-1.1-3.64-2.65-4.75-4.67-1.11-2.01-1.67-4.39-1.67-7.13s.54-5.1,1.63-7.09c1.08-1.98,2.63-3.51,4.65-4.58,2.01-1.07,4.39-1.61,7.13-1.61s4.99.51,6.92,1.54,3.4,2.5,4.43,4.41c1.03,1.91,1.54,4.2,1.54,6.85v2.4h-19.48c.29,1.91,1.01,3.37,2.18,4.37,1.17,1,2.71,1.5,4.62,1.5,1.51,0,2.71-.26,3.6-.77.88-.51,1.51-1.3,1.88-2.36h7.11c-.57,2.74-1.96,4.89-4.15,6.45-2.2,1.56-5,2.33-8.39,2.33ZM280.71,34.42h12.5c-.23-1.63-.86-2.85-1.88-3.66s-2.41-1.22-4.15-1.22-3.16.41-4.26,1.24-1.84,2.04-2.21,3.64Z"/>
    </g>
    <g>
      <g>
        <path class="cls-2" d="M31.54,55.86l-4.97-4.97,19.82-19.82-7.87-7.87,4.43-4.43,20.72,20.72-4.43,4.43-7.87-7.87-19.82,19.82Z"/>
        <path d="M28.15,43.55l7.87,7.87-4.43,4.43-20.72-20.72,4.43-4.43,7.87,7.87,19.82-19.82,5.01,5.07-19.86,19.72Z"/>
      </g>
      <g>
        <rect x="28.15" y="47.66" width="6.27" height="7.03" transform="translate(-27.02 37.11) rotate(-45)"/>
        <polygon class="cls-2" points="42.97 18.67 38.54 23.22 43.77 28.45 48.48 24.3 42.97 18.67"/>
      </g>
    </g>
    <rect class="cls-1" x="11.06" y="11.06" width="52.43" height="52.43" rx="5.21" ry="5.21" transform="translate(37.27 -15.44) rotate(45)"/>
  </g>
</svg>